<mxfile modified="2023-12-05T14:16:43.124Z" host="app.diagrams.net" agent="Mozilla/5.0 (Windows NT 10.0; Win64; x64) AppleWebKit/537.36 (KHTML, like Gecko) Chrome/119.0.0.0 Safari/537.36" etag="1P0sk_L2srHsVK0JReji" version="22.1.5" type="github">
  <diagram id="Ht1M8jgEwFfnCIfOTk4-" name="Page-1">
    <mxGraphModel dx="3078" dy="1044" grid="0" gridSize="10" guides="1" tooltips="1" connect="1" arrows="1" fold="1" page="1" pageScale="1" pageWidth="1169" pageHeight="827" math="0" shadow="0">
      <root>
        <mxCell id="0" />
        <mxCell id="1" parent="0" />
        <mxCell id="UEzPUAAOIrF-is8g5C7q-121" value="Amazon&lt;br&gt;CloudWatch&lt;br&gt;" style="outlineConnect=0;fontColor=#232F3E;gradientColor=#F34482;gradientDirection=north;fillColor=#BC1356;strokeColor=#ffffff;dashed=0;verticalLabelPosition=bottom;verticalAlign=top;align=center;html=1;fontSize=12;fontStyle=0;aspect=fixed;shape=mxgraph.aws4.resourceIcon;resIcon=mxgraph.aws4.cloudwatch;labelBackgroundColor=#ffffff;" parent="1" vertex="1">
          <mxGeometry x="1174.5000000000002" y="835" width="78" height="78" as="geometry" />
        </mxCell>
        <mxCell id="DRkj2pEiJAdeyXQ4-ryN-1" value="" style="sketch=0;points=[[0,0,0],[0.25,0,0],[0.5,0,0],[0.75,0,0],[1,0,0],[0,1,0],[0.25,1,0],[0.5,1,0],[0.75,1,0],[1,1,0],[0,0.25,0],[0,0.5,0],[0,0.75,0],[1,0.25,0],[1,0.5,0],[1,0.75,0]];outlineConnect=0;fontColor=#232F3E;fillColor=#ED7100;strokeColor=#ffffff;dashed=0;verticalLabelPosition=bottom;verticalAlign=top;align=center;html=1;fontSize=12;fontStyle=0;aspect=fixed;shape=mxgraph.aws4.resourceIcon;resIcon=mxgraph.aws4.elastic_load_balancing;" vertex="1" parent="1">
          <mxGeometry x="475" y="455" width="78" height="78" as="geometry" />
        </mxCell>
        <mxCell id="DRkj2pEiJAdeyXQ4-ryN-4" value="" style="sketch=0;outlineConnect=0;fontColor=#232F3E;gradientColor=none;fillColor=#C925D1;strokeColor=none;dashed=0;verticalLabelPosition=bottom;verticalAlign=top;align=center;html=1;fontSize=12;fontStyle=0;aspect=fixed;pointerEvents=1;shape=mxgraph.aws4.aurora_instance;" vertex="1" parent="1">
          <mxGeometry x="1093.5" y="675" width="78" height="78" as="geometry" />
        </mxCell>
        <mxCell id="DRkj2pEiJAdeyXQ4-ryN-8" value="" style="sketch=0;points=[[0,0,0],[0.25,0,0],[0.5,0,0],[0.75,0,0],[1,0,0],[0,1,0],[0.25,1,0],[0.5,1,0],[0.75,1,0],[1,1,0],[0,0.25,0],[0,0.5,0],[0,0.75,0],[1,0.25,0],[1,0.5,0],[1,0.75,0]];outlineConnect=0;fontColor=#232F3E;fillColor=#8C4FFF;strokeColor=#ffffff;dashed=0;verticalLabelPosition=bottom;verticalAlign=top;align=center;html=1;fontSize=12;fontStyle=0;aspect=fixed;shape=mxgraph.aws4.resourceIcon;resIcon=mxgraph.aws4.site_to_site_vpn;" vertex="1" parent="1">
          <mxGeometry x="222" y="206" width="78" height="78" as="geometry" />
        </mxCell>
        <mxCell id="DRkj2pEiJAdeyXQ4-ryN-10" value="" style="sketch=0;points=[[0,0,0],[0.25,0,0],[0.5,0,0],[0.75,0,0],[1,0,0],[0,1,0],[0.25,1,0],[0.5,1,0],[0.75,1,0],[1,1,0],[0,0.25,0],[0,0.5,0],[0,0.75,0],[1,0.25,0],[1,0.5,0],[1,0.75,0]];outlineConnect=0;fontColor=#232F3E;fillColor=#DD344C;strokeColor=#ffffff;dashed=0;verticalLabelPosition=bottom;verticalAlign=top;align=center;html=1;fontSize=12;fontStyle=0;aspect=fixed;shape=mxgraph.aws4.resourceIcon;resIcon=mxgraph.aws4.network_firewall;" vertex="1" parent="1">
          <mxGeometry x="220" y="370" width="78" height="78" as="geometry" />
        </mxCell>
        <mxCell id="DRkj2pEiJAdeyXQ4-ryN-12" value="" style="sketch=0;points=[[0,0,0],[0.25,0,0],[0.5,0,0],[0.75,0,0],[1,0,0],[0,1,0],[0.25,1,0],[0.5,1,0],[0.75,1,0],[1,1,0],[0,0.25,0],[0,0.5,0],[0,0.75,0],[1,0.25,0],[1,0.5,0],[1,0.75,0]];outlineConnect=0;fontColor=#232F3E;fillColor=#7AA116;strokeColor=#ffffff;dashed=0;verticalLabelPosition=bottom;verticalAlign=top;align=center;html=1;fontSize=12;fontStyle=0;aspect=fixed;shape=mxgraph.aws4.resourceIcon;resIcon=mxgraph.aws4.elastic_file_system;" vertex="1" parent="1">
          <mxGeometry x="1175" y="455" width="78" height="78" as="geometry" />
        </mxCell>
        <mxCell id="DRkj2pEiJAdeyXQ4-ryN-13" value="" style="sketch=0;outlineConnect=0;fontColor=#232F3E;gradientColor=none;fillColor=#C925D1;strokeColor=none;dashed=0;verticalLabelPosition=bottom;verticalAlign=top;align=center;html=1;fontSize=12;fontStyle=0;aspect=fixed;pointerEvents=1;shape=mxgraph.aws4.aurora_instance;" vertex="1" parent="1">
          <mxGeometry x="1256.5" y="675" width="78" height="78" as="geometry" />
        </mxCell>
        <mxCell id="DRkj2pEiJAdeyXQ4-ryN-14" value="" style="outlineConnect=0;dashed=0;verticalLabelPosition=bottom;verticalAlign=top;align=center;html=1;shape=mxgraph.aws3.ec2;fillColor=#F58534;gradientColor=none;" vertex="1" parent="1">
          <mxGeometry x="1069" y="222.5" width="76.5" height="93" as="geometry" />
        </mxCell>
        <mxCell id="DRkj2pEiJAdeyXQ4-ryN-15" value="" style="sketch=0;aspect=fixed;pointerEvents=1;shadow=0;dashed=0;html=1;strokeColor=none;labelPosition=center;verticalLabelPosition=bottom;verticalAlign=top;align=center;fillColor=#00188D;shape=mxgraph.azure.computer" vertex="1" parent="1">
          <mxGeometry x="-58" y="222.5" width="50" height="45" as="geometry" />
        </mxCell>
        <mxCell id="DRkj2pEiJAdeyXQ4-ryN-16" value="Amazon VPC" style="sketch=0;outlineConnect=0;fontColor=#232F3E;gradientColor=none;strokeColor=#ffffff;fillColor=#232F3E;dashed=0;verticalLabelPosition=middle;verticalAlign=bottom;align=center;html=1;whiteSpace=wrap;fontSize=10;fontStyle=1;spacing=3;shape=mxgraph.aws4.productIcon;prIcon=mxgraph.aws4.vpc;" vertex="1" parent="1">
          <mxGeometry x="220" y="575" width="80" height="100" as="geometry" />
        </mxCell>
        <mxCell id="DRkj2pEiJAdeyXQ4-ryN-19" value="" style="endArrow=classic;html=1;rounded=0;exitX=1;exitY=0.5;exitDx=0;exitDy=0;exitPerimeter=0;entryX=0;entryY=0.5;entryDx=0;entryDy=0;entryPerimeter=0;" edge="1" parent="1" source="DRkj2pEiJAdeyXQ4-ryN-15" target="DRkj2pEiJAdeyXQ4-ryN-8">
          <mxGeometry width="50" height="50" relative="1" as="geometry">
            <mxPoint x="102" y="406" as="sourcePoint" />
            <mxPoint x="197" y="303" as="targetPoint" />
          </mxGeometry>
        </mxCell>
        <mxCell id="DRkj2pEiJAdeyXQ4-ryN-20" value="" style="endArrow=classic;html=1;rounded=0;exitX=0.5;exitY=1;exitDx=0;exitDy=0;exitPerimeter=0;entryX=0.5;entryY=0;entryDx=0;entryDy=0;entryPerimeter=0;" edge="1" parent="1" source="DRkj2pEiJAdeyXQ4-ryN-8" target="DRkj2pEiJAdeyXQ4-ryN-10">
          <mxGeometry width="50" height="50" relative="1" as="geometry">
            <mxPoint x="172" y="491" as="sourcePoint" />
            <mxPoint x="254" y="399" as="targetPoint" />
          </mxGeometry>
        </mxCell>
        <mxCell id="DRkj2pEiJAdeyXQ4-ryN-21" value="" style="endArrow=classic;html=1;rounded=0;exitX=1;exitY=0.5;exitDx=0;exitDy=0;exitPerimeter=0;" edge="1" parent="1" source="DRkj2pEiJAdeyXQ4-ryN-27" target="DRkj2pEiJAdeyXQ4-ryN-4">
          <mxGeometry width="50" height="50" relative="1" as="geometry">
            <mxPoint x="861.5" y="546.5" as="sourcePoint" />
            <mxPoint x="1016.5" y="479.5" as="targetPoint" />
          </mxGeometry>
        </mxCell>
        <mxCell id="DRkj2pEiJAdeyXQ4-ryN-22" value="" style="endArrow=classic;html=1;rounded=0;exitX=0.5;exitY=1;exitDx=0;exitDy=0;exitPerimeter=0;" edge="1" parent="1" source="DRkj2pEiJAdeyXQ4-ryN-10" target="DRkj2pEiJAdeyXQ4-ryN-16">
          <mxGeometry width="50" height="50" relative="1" as="geometry">
            <mxPoint x="72" y="400" as="sourcePoint" />
            <mxPoint x="227" y="333" as="targetPoint" />
          </mxGeometry>
        </mxCell>
        <mxCell id="DRkj2pEiJAdeyXQ4-ryN-23" value="" style="sketch=0;points=[[0,0,0],[0.25,0,0],[0.5,0,0],[0.75,0,0],[1,0,0],[0,1,0],[0.25,1,0],[0.5,1,0],[0.75,1,0],[1,1,0],[0,0.25,0],[0,0.5,0],[0,0.75,0],[1,0.25,0],[1,0.5,0],[1,0.75,0]];outlineConnect=0;fontColor=#232F3E;fillColor=#ED7100;strokeColor=#ffffff;dashed=0;verticalLabelPosition=bottom;verticalAlign=top;align=center;html=1;fontSize=12;fontStyle=0;aspect=fixed;shape=mxgraph.aws4.resourceIcon;resIcon=mxgraph.aws4.elastic_load_balancing;" vertex="1" parent="1">
          <mxGeometry x="475" y="647.5" width="78" height="78" as="geometry" />
        </mxCell>
        <mxCell id="DRkj2pEiJAdeyXQ4-ryN-24" value="" style="endArrow=classic;html=1;rounded=0;entryX=0;entryY=0.5;entryDx=0;entryDy=0;entryPerimeter=0;" edge="1" parent="1" source="DRkj2pEiJAdeyXQ4-ryN-16" target="DRkj2pEiJAdeyXQ4-ryN-1">
          <mxGeometry width="50" height="50" relative="1" as="geometry">
            <mxPoint x="377" y="417" as="sourcePoint" />
            <mxPoint x="532" y="350" as="targetPoint" />
          </mxGeometry>
        </mxCell>
        <mxCell id="DRkj2pEiJAdeyXQ4-ryN-25" value="" style="endArrow=classic;html=1;rounded=0;" edge="1" parent="1" source="DRkj2pEiJAdeyXQ4-ryN-4" target="DRkj2pEiJAdeyXQ4-ryN-13">
          <mxGeometry width="50" height="50" relative="1" as="geometry">
            <mxPoint x="1097.5" y="827.5" as="sourcePoint" />
            <mxPoint x="1252.5" y="760.5" as="targetPoint" />
          </mxGeometry>
        </mxCell>
        <mxCell id="DRkj2pEiJAdeyXQ4-ryN-26" value="" style="endArrow=classic;html=1;rounded=0;entryX=0;entryY=0.5;entryDx=0;entryDy=0;entryPerimeter=0;" edge="1" parent="1" source="DRkj2pEiJAdeyXQ4-ryN-16" target="DRkj2pEiJAdeyXQ4-ryN-23">
          <mxGeometry width="50" height="50" relative="1" as="geometry">
            <mxPoint x="421" y="742" as="sourcePoint" />
            <mxPoint x="576" y="675" as="targetPoint" />
          </mxGeometry>
        </mxCell>
        <mxCell id="DRkj2pEiJAdeyXQ4-ryN-27" value="" style="outlineConnect=0;dashed=0;verticalLabelPosition=bottom;verticalAlign=top;align=center;html=1;shape=mxgraph.aws3.ec2;fillColor=#F58534;gradientColor=none;" vertex="1" parent="1">
          <mxGeometry x="711" y="428" width="76.5" height="93" as="geometry" />
        </mxCell>
        <mxCell id="DRkj2pEiJAdeyXQ4-ryN-28" value="" style="outlineConnect=0;dashed=0;verticalLabelPosition=bottom;verticalAlign=top;align=center;html=1;shape=mxgraph.aws3.ec2;fillColor=#F58534;gradientColor=none;" vertex="1" parent="1">
          <mxGeometry x="711" y="640" width="76.5" height="93" as="geometry" />
        </mxCell>
        <mxCell id="DRkj2pEiJAdeyXQ4-ryN-29" value="" style="endArrow=classic;html=1;rounded=0;entryX=0;entryY=0.79;entryDx=0;entryDy=0;entryPerimeter=0;exitX=1;exitY=0.25;exitDx=0;exitDy=0;exitPerimeter=0;" edge="1" parent="1" source="DRkj2pEiJAdeyXQ4-ryN-23" target="DRkj2pEiJAdeyXQ4-ryN-27">
          <mxGeometry width="50" height="50" relative="1" as="geometry">
            <mxPoint x="689" y="793" as="sourcePoint" />
            <mxPoint x="821" y="679" as="targetPoint" />
          </mxGeometry>
        </mxCell>
        <mxCell id="DRkj2pEiJAdeyXQ4-ryN-30" value="" style="endArrow=classic;html=1;rounded=0;exitX=1;exitY=0.5;exitDx=0;exitDy=0;exitPerimeter=0;" edge="1" parent="1" source="DRkj2pEiJAdeyXQ4-ryN-1" target="DRkj2pEiJAdeyXQ4-ryN-28">
          <mxGeometry width="50" height="50" relative="1" as="geometry">
            <mxPoint x="712" y="579.5" as="sourcePoint" />
            <mxPoint x="844" y="465.5" as="targetPoint" />
          </mxGeometry>
        </mxCell>
        <mxCell id="DRkj2pEiJAdeyXQ4-ryN-31" value="" style="endArrow=classic;html=1;rounded=0;entryX=0;entryY=0.5;entryDx=0;entryDy=0;entryPerimeter=0;exitX=1;exitY=0.5;exitDx=0;exitDy=0;exitPerimeter=0;" edge="1" parent="1" source="DRkj2pEiJAdeyXQ4-ryN-23" target="DRkj2pEiJAdeyXQ4-ryN-28">
          <mxGeometry width="50" height="50" relative="1" as="geometry">
            <mxPoint x="658" y="829.5" as="sourcePoint" />
            <mxPoint x="790" y="715.5" as="targetPoint" />
          </mxGeometry>
        </mxCell>
        <mxCell id="DRkj2pEiJAdeyXQ4-ryN-32" value="" style="endArrow=classic;html=1;rounded=0;entryX=0;entryY=0.5;entryDx=0;entryDy=0;entryPerimeter=0;exitX=1;exitY=0.25;exitDx=0;exitDy=0;exitPerimeter=0;" edge="1" parent="1" source="DRkj2pEiJAdeyXQ4-ryN-1" target="DRkj2pEiJAdeyXQ4-ryN-27">
          <mxGeometry width="50" height="50" relative="1" as="geometry">
            <mxPoint x="383" y="676.5" as="sourcePoint" />
            <mxPoint x="515" y="562.5" as="targetPoint" />
          </mxGeometry>
        </mxCell>
        <mxCell id="DRkj2pEiJAdeyXQ4-ryN-33" value="" style="endArrow=classic;html=1;rounded=0;entryX=0;entryY=0.79;entryDx=0;entryDy=0;entryPerimeter=0;exitX=1;exitY=0.5;exitDx=0;exitDy=0;exitPerimeter=0;" edge="1" parent="1" source="DRkj2pEiJAdeyXQ4-ryN-27" target="DRkj2pEiJAdeyXQ4-ryN-14">
          <mxGeometry width="50" height="50" relative="1" as="geometry">
            <mxPoint x="857" y="489.5" as="sourcePoint" />
            <mxPoint x="925.9999999999995" y="291.5" as="targetPoint" />
          </mxGeometry>
        </mxCell>
        <mxCell id="DRkj2pEiJAdeyXQ4-ryN-34" value="" style="endArrow=classic;html=1;rounded=0;exitX=1;exitY=0.5;exitDx=0;exitDy=0;exitPerimeter=0;entryX=1;entryY=0.79;entryDx=0;entryDy=0;entryPerimeter=0;" edge="1" parent="1" source="DRkj2pEiJAdeyXQ4-ryN-28" target="DRkj2pEiJAdeyXQ4-ryN-14">
          <mxGeometry width="50" height="50" relative="1" as="geometry">
            <mxPoint x="812" y="541.5" as="sourcePoint" />
            <mxPoint x="964.25" y="338" as="targetPoint" />
          </mxGeometry>
        </mxCell>
        <mxCell id="DRkj2pEiJAdeyXQ4-ryN-35" value="" style="endArrow=classic;html=1;rounded=0;exitX=1;exitY=0.79;exitDx=0;exitDy=0;exitPerimeter=0;" edge="1" parent="1" source="DRkj2pEiJAdeyXQ4-ryN-28" target="DRkj2pEiJAdeyXQ4-ryN-4">
          <mxGeometry width="50" height="50" relative="1" as="geometry">
            <mxPoint x="820" y="797.5" as="sourcePoint" />
            <mxPoint x="952" y="683.5" as="targetPoint" />
          </mxGeometry>
        </mxCell>
        <mxCell id="DRkj2pEiJAdeyXQ4-ryN-36" value="" style="endArrow=classic;html=1;rounded=0;exitX=1;exitY=0.5;exitDx=0;exitDy=0;exitPerimeter=0;entryX=0;entryY=0.75;entryDx=0;entryDy=0;entryPerimeter=0;" edge="1" parent="1" source="DRkj2pEiJAdeyXQ4-ryN-28" target="DRkj2pEiJAdeyXQ4-ryN-12">
          <mxGeometry width="50" height="50" relative="1" as="geometry">
            <mxPoint x="1007" y="542.5" as="sourcePoint" />
            <mxPoint x="1187" y="417.5" as="targetPoint" />
          </mxGeometry>
        </mxCell>
        <mxCell id="DRkj2pEiJAdeyXQ4-ryN-37" value="" style="endArrow=classic;html=1;rounded=0;entryX=0;entryY=0.5;entryDx=0;entryDy=0;entryPerimeter=0;exitX=1;exitY=0.5;exitDx=0;exitDy=0;exitPerimeter=0;" edge="1" parent="1" source="DRkj2pEiJAdeyXQ4-ryN-27" target="DRkj2pEiJAdeyXQ4-ryN-12">
          <mxGeometry width="50" height="50" relative="1" as="geometry">
            <mxPoint x="765" y="483.5" as="sourcePoint" />
            <mxPoint x="1220" y="410.5" as="targetPoint" />
          </mxGeometry>
        </mxCell>
        <mxCell id="DRkj2pEiJAdeyXQ4-ryN-38" value="" style="endArrow=classic;html=1;rounded=0;entryX=0;entryY=0.5;entryDx=0;entryDy=0;entryPerimeter=0;" edge="1" parent="1" source="DRkj2pEiJAdeyXQ4-ryN-45" target="DRkj2pEiJAdeyXQ4-ryN-14">
          <mxGeometry width="50" height="50" relative="1" as="geometry">
            <mxPoint x="962" y="346.5" as="sourcePoint" />
            <mxPoint x="1142" y="221.5" as="targetPoint" />
          </mxGeometry>
        </mxCell>
        <mxCell id="DRkj2pEiJAdeyXQ4-ryN-39" value="" style="endArrow=classic;html=1;rounded=0;" edge="1" parent="1" source="UEzPUAAOIrF-is8g5C7q-121" target="DRkj2pEiJAdeyXQ4-ryN-4">
          <mxGeometry width="50" height="50" relative="1" as="geometry">
            <mxPoint x="1137.5" y="900.5" as="sourcePoint" />
            <mxPoint x="1317.5" y="775.5" as="targetPoint" />
          </mxGeometry>
        </mxCell>
        <mxCell id="DRkj2pEiJAdeyXQ4-ryN-40" value="" style="endArrow=classic;html=1;rounded=0;" edge="1" parent="1" source="UEzPUAAOIrF-is8g5C7q-121" target="DRkj2pEiJAdeyXQ4-ryN-13">
          <mxGeometry width="50" height="50" relative="1" as="geometry">
            <mxPoint x="1185.5" y="792.5" as="sourcePoint" />
            <mxPoint x="1314.5" y="846.5" as="targetPoint" />
          </mxGeometry>
        </mxCell>
        <mxCell id="DRkj2pEiJAdeyXQ4-ryN-45" value="Amazon&lt;br&gt;CloudWatch&lt;br&gt;" style="outlineConnect=0;fontColor=#232F3E;gradientColor=#F34482;gradientDirection=north;fillColor=#BC1356;strokeColor=#ffffff;dashed=0;verticalLabelPosition=bottom;verticalAlign=top;align=center;html=1;fontSize=12;fontStyle=0;aspect=fixed;shape=mxgraph.aws4.resourceIcon;resIcon=mxgraph.aws4.cloudwatch;labelBackgroundColor=#ffffff;" vertex="1" parent="1">
          <mxGeometry x="711.0000000000002" y="234" width="78" height="78" as="geometry" />
        </mxCell>
        <mxCell id="DRkj2pEiJAdeyXQ4-ryN-47" value="" style="endArrow=classic;html=1;rounded=0;entryX=0.5;entryY=0;entryDx=0;entryDy=0;entryPerimeter=0;" edge="1" parent="1" source="DRkj2pEiJAdeyXQ4-ryN-45" target="DRkj2pEiJAdeyXQ4-ryN-27">
          <mxGeometry width="50" height="50" relative="1" as="geometry">
            <mxPoint x="982" y="366.5" as="sourcePoint" />
            <mxPoint x="1162" y="241.5" as="targetPoint" />
          </mxGeometry>
        </mxCell>
        <mxCell id="DRkj2pEiJAdeyXQ4-ryN-48" value="" style="image;html=1;image=img/lib/clip_art/computers/Server_Rack_128x128.png" vertex="1" parent="1">
          <mxGeometry x="221" y="859" width="80" height="80" as="geometry" />
        </mxCell>
        <mxCell id="DRkj2pEiJAdeyXQ4-ryN-50" value="" style="sketch=0;points=[[0,0,0],[0.25,0,0],[0.5,0,0],[0.75,0,0],[1,0,0],[0,1,0],[0.25,1,0],[0.5,1,0],[0.75,1,0],[1,1,0],[0,0.25,0],[0,0.5,0],[0,0.75,0],[1,0.25,0],[1,0.5,0],[1,0.75,0]];outlineConnect=0;fontColor=#232F3E;fillColor=#8C4FFF;strokeColor=#ffffff;dashed=0;verticalLabelPosition=bottom;verticalAlign=top;align=center;html=1;fontSize=12;fontStyle=0;aspect=fixed;shape=mxgraph.aws4.resourceIcon;resIcon=mxgraph.aws4.transit_gateway;" vertex="1" parent="1">
          <mxGeometry x="222" y="728" width="78" height="78" as="geometry" />
        </mxCell>
        <mxCell id="DRkj2pEiJAdeyXQ4-ryN-51" value="" style="endArrow=classic;html=1;rounded=0;entryX=0.5;entryY=0;entryDx=0;entryDy=0;entryPerimeter=0;" edge="1" parent="1" source="DRkj2pEiJAdeyXQ4-ryN-16" target="DRkj2pEiJAdeyXQ4-ryN-50">
          <mxGeometry width="50" height="50" relative="1" as="geometry">
            <mxPoint x="310" y="646" as="sourcePoint" />
            <mxPoint x="485" y="697" as="targetPoint" />
          </mxGeometry>
        </mxCell>
        <mxCell id="DRkj2pEiJAdeyXQ4-ryN-52" value="" style="endArrow=classic;html=1;rounded=0;entryX=0.5;entryY=0;entryDx=0;entryDy=0;exitX=0.5;exitY=1;exitDx=0;exitDy=0;exitPerimeter=0;" edge="1" parent="1" source="DRkj2pEiJAdeyXQ4-ryN-50" target="DRkj2pEiJAdeyXQ4-ryN-48">
          <mxGeometry width="50" height="50" relative="1" as="geometry">
            <mxPoint x="316" y="832" as="sourcePoint" />
            <mxPoint x="317" y="885" as="targetPoint" />
          </mxGeometry>
        </mxCell>
        <mxCell id="DRkj2pEiJAdeyXQ4-ryN-53" value="EC2-1" style="text;html=1;strokeColor=none;fillColor=none;align=center;verticalAlign=middle;whiteSpace=wrap;rounded=0;" vertex="1" parent="1">
          <mxGeometry x="719.25" y="533" width="60" height="30" as="geometry" />
        </mxCell>
        <mxCell id="DRkj2pEiJAdeyXQ4-ryN-56" value="EC2-2" style="text;html=1;strokeColor=none;fillColor=none;align=center;verticalAlign=middle;whiteSpace=wrap;rounded=0;" vertex="1" parent="1">
          <mxGeometry x="719.25" y="747" width="60" height="30" as="geometry" />
        </mxCell>
        <mxCell id="DRkj2pEiJAdeyXQ4-ryN-58" value="EC2-cache" style="text;html=1;strokeColor=none;fillColor=none;align=center;verticalAlign=middle;whiteSpace=wrap;rounded=0;" vertex="1" parent="1">
          <mxGeometry x="1077" y="182" width="60" height="30" as="geometry" />
        </mxCell>
        <mxCell id="DRkj2pEiJAdeyXQ4-ryN-59" value="LOAD BALANCER 1" style="text;html=1;strokeColor=none;fillColor=none;align=center;verticalAlign=middle;whiteSpace=wrap;rounded=0;" vertex="1" parent="1">
          <mxGeometry x="484" y="418" width="60" height="30" as="geometry" />
        </mxCell>
        <mxCell id="DRkj2pEiJAdeyXQ4-ryN-60" value="LOAD BALANCER 2" style="text;html=1;strokeColor=none;fillColor=none;align=center;verticalAlign=middle;whiteSpace=wrap;rounded=0;" vertex="1" parent="1">
          <mxGeometry x="484" y="610" width="60" height="30" as="geometry" />
        </mxCell>
        <mxCell id="DRkj2pEiJAdeyXQ4-ryN-61" value="DB - SLAVE" style="text;html=1;strokeColor=none;fillColor=none;align=center;verticalAlign=middle;whiteSpace=wrap;rounded=0;" vertex="1" parent="1">
          <mxGeometry x="1265.5" y="640" width="60" height="30" as="geometry" />
        </mxCell>
        <mxCell id="DRkj2pEiJAdeyXQ4-ryN-62" value="DB - MASTER" style="text;html=1;strokeColor=none;fillColor=none;align=center;verticalAlign=middle;whiteSpace=wrap;rounded=0;" vertex="1" parent="1">
          <mxGeometry x="1109" y="645" width="60" height="30" as="geometry" />
        </mxCell>
        <mxCell id="DRkj2pEiJAdeyXQ4-ryN-65" value="EFS" style="text;html=1;strokeColor=none;fillColor=none;align=center;verticalAlign=middle;whiteSpace=wrap;rounded=0;" vertex="1" parent="1">
          <mxGeometry x="1184" y="418" width="60" height="30" as="geometry" />
        </mxCell>
        <mxCell id="DRkj2pEiJAdeyXQ4-ryN-67" value="SITE TO SITE VPN" style="text;html=1;strokeColor=none;fillColor=none;align=center;verticalAlign=middle;whiteSpace=wrap;rounded=0;" vertex="1" parent="1">
          <mxGeometry x="231" y="174" width="60" height="30" as="geometry" />
        </mxCell>
        <mxCell id="DRkj2pEiJAdeyXQ4-ryN-68" value="FIREWALL" style="text;html=1;strokeColor=none;fillColor=none;align=center;verticalAlign=middle;whiteSpace=wrap;rounded=0;" vertex="1" parent="1">
          <mxGeometry x="151" y="398" width="60" height="30" as="geometry" />
        </mxCell>
        <mxCell id="DRkj2pEiJAdeyXQ4-ryN-69" value="TRANSIT&amp;nbsp;&lt;br&gt;GATEWAY" style="text;html=1;strokeColor=none;fillColor=none;align=center;verticalAlign=middle;whiteSpace=wrap;rounded=0;" vertex="1" parent="1">
          <mxGeometry x="154" y="757" width="60" height="30" as="geometry" />
        </mxCell>
        <mxCell id="DRkj2pEiJAdeyXQ4-ryN-70" value="GAF" style="text;html=1;strokeColor=none;fillColor=none;align=center;verticalAlign=middle;whiteSpace=wrap;rounded=0;" vertex="1" parent="1">
          <mxGeometry x="231" y="944" width="60" height="30" as="geometry" />
        </mxCell>
      </root>
    </mxGraphModel>
  </diagram>
</mxfile>
